HIERARCHY
ROOT Hips
{
 OFFSET 0.000000 0.000000 0.000000
 CHANNELS 6 Xposition Yposition Zposition Yrotation Xrotation Zrotation
 JOINT Chest
 {
  OFFSET 0.000000 11.395451 -0.039534
  CHANNELS 3 Yrotation Xrotation Zrotation
  JOINT Chest2
  {
   OFFSET 0.000000 9.398669 0.071813
   CHANNELS 3 Yrotation Xrotation Zrotation
   JOINT Chest3
   {
    OFFSET 0.000000 8.489801 0.000000
    CHANNELS 3 Yrotation Xrotation Zrotation
    JOINT Chest4
    {
     OFFSET 0.000000 8.489801 0.000000
     CHANNELS 3 Yrotation Xrotation Zrotation
     JOINT Neck
     {
      OFFSET 0.000000 12.404889 0.000000
      CHANNELS 3 Yrotation Xrotation Zrotation
      JOINT Head
      {
       OFFSET 0.000000 8.903270 0.092239
       CHANNELS 3 Yrotation Xrotation Zrotation
       End Site
       {
        OFFSET 0.000000 17.592497 0.007158
       }
      }
     }
     JOINT RightCollar
     {
      OFFSET -3.196775 6.966722 0.000000
      CHANNELS 3 Yrotation Xrotation Zrotation
      JOINT RightShoulder
      {
       OFFSET -15.955896 0.000000 0.000000
       CHANNELS 3 Yrotation Xrotation Zrotation
       JOINT RightElbow
       {
        OFFSET -24.792472 0.000000 0.000000
        CHANNELS 3 Yrotation Xrotation Zrotation
        JOINT RightWrist
        {
         OFFSET -20.900115 0.000000 0.025002
         CHANNELS 3 Yrotation Xrotation Zrotation
         End Site
         {
          OFFSET -16.056692 0.000000 0.000000
         }
        }
       }
      }
     }
     JOINT LeftCollar
     {
      OFFSET 3.196775 6.966722 0.000000
      CHANNELS 3 Yrotation Xrotation Zrotation
      JOINT LeftShoulder
      {
       OFFSET 15.955896 0.000000 0.000000
       CHANNELS 3 Yrotation Xrotation Zrotation
       JOINT LeftElbow
       {
        OFFSET 24.792472 0.000000 0.000000
        CHANNELS 3 Yrotation Xrotation Zrotation
        JOINT LeftWrist
        {
         OFFSET 20.900115 0.000000 0.025002
         CHANNELS 3 Yrotation Xrotation Zrotation
         End Site
         {
          OFFSET 16.056692 0.000000 0.000000
         }
        }
       }
      }
     }
    }
   }
  }
 }
 JOINT RightHip
 {
  OFFSET -9.568995 0.193718 0.019767
  CHANNELS 3 Yrotation Xrotation Zrotation
  JOINT RightKnee
  {
   OFFSET 0.000000 -56.649296 0.015402
   CHANNELS 3 Yrotation Xrotation Zrotation
   JOINT RightAnkle
   {
    OFFSET 0.000000 -41.365147 0.021264
    CHANNELS 3 Yrotation Xrotation Zrotation
    JOINT RightToe
    {
     OFFSET 0.000000 -7.465940 17.672538
     CHANNELS 3 Yrotation Xrotation Zrotation
     End Site
     {
      OFFSET 0.000000 -1.736315 7.837145
     }
    }
   }
  }
 }
 JOINT LeftHip
 {
  OFFSET 9.568995 0.193718 0.019767
  CHANNELS 3 Yrotation Xrotation Zrotation
  JOINT LeftKnee
  {
   OFFSET 0.000000 -56.649296 0.015402
   CHANNELS 3 Yrotation Xrotation Zrotation
   JOINT LeftAnkle
   {
    OFFSET 0.000000 -41.365147 0.021264
    CHANNELS 3 Yrotation Xrotation Zrotation
    JOINT LeftToe
    {
     OFFSET 0.000000 -7.465940 17.672538
     CHANNELS 3 Yrotation Xrotation Zrotation
     End Site
     {
      OFFSET 0.000000 -1.736315 7.837145
     }
    }
   }
  }
 }
}
MOTION
Frames: 10
Frame Time: 0.016667
16.478068 106.568811 163.197873 -82.612703 -3.771950 -0.794885 0.349726 3.320310 -0.596247 0.159634 1.475243 -0.267387 0.159634 1.475243 -0.267387 0.120364 1.106363 -0.200915 1.587296 12.806889 -0.088804 3.054930 -12.382332 -0.827133 2.382052 3.360873 14.385455 3.891419 -6.853211 74.483516 1.186002 -0.383608 -0.156645 -3.611145 -3.063377 0.871512 1.105396 5.853269 -4.171261 -3.417937 -12.020932 -75.316351 -1.475756 3.739650 -3.358947 5.709761 -0.435885 -2.287579 0.292966 9.353481 -0.703380 -1.894419 -0.099200 0.053885 -8.431202 -6.758177 1.588508 0.000000 0.000000 0.000000 0.470279 8.975195 0.461368 -0.177876 2.454795 0.427192 -0.133745 -7.488030 -0.400804 -0.000573 -0.174595 0.376023
16.591100 106.562411 163.118025 -82.610834 -3.786567 -0.699812 0.389257 3.301060 -0.565113 0.176951 1.466664 -0.253824 0.176951 1.466665 -0.253823 0.133316 1.099926 -0.190782 1.582901 12.864414 -0.139867 3.066354 -12.274215 -0.920742 2.313257 3.395528 14.177212 3.896970 -6.738300 74.600435 1.203092 -0.403344 -0.170013 -3.603242 -3.053199 0.883216 1.142530 5.886633 -4.365690 -3.381859 -11.909557 -75.399719 -1.436097 3.666933 -3.244159 5.649885 -0.425564 -2.178190 0.437994 9.272433 -0.716960 -2.184486 -0.069764 0.023214 -8.306547 -6.715195 1.556098 0.000000 0.000000 0.000000 0.466072 8.907012 0.412752 -0.234042 2.495072 0.413653 -0.085363 -7.481458 -0.425275 -0.000446 -0.138871 0.375871
16.704132 106.556012 163.038177 -82.608989 -3.801187 -0.604738 0.428801 3.281851 -0.533984 0.194276 1.458107 -0.240259 0.194276 1.458107 -0.240259 0.146272 1.093505 -0.180648 1.578379 12.922043 -0.190833 3.077415 -12.165884 -1.014041 2.244485 3.430155 13.968916 3.902829 -6.623520 74.717444 1.220190 -0.423075 -0.183386 -3.595331 -3.043004 0.894900 1.179690 5.920622 -4.559985 -3.345859 -11.797933 -75.482665 -1.397056 3.593860 -3.129477 5.589546 -0.415369 -2.069052 0.583152 9.191663 -0.730706 -2.474548 -0.040703 -0.008011 -8.181925 -6.672135 1.523818 -0.000000 -0.000000 0.000000 0.462052 8.838833 0.364149 -0.290236 2.535294 0.400003 -0.036973 -7.474856 -0.449709 -0.000326 -0.103147 0.375720
16.817552 106.553525 162.957921 -82.611063 -3.817446 -0.519988 0.470666 3.264550 -0.502044 0.212631 1.450401 -0.226349 0.212631 1.450401 -0.226349 0.160002 1.087722 -0.170258 1.576101 12.982540 -0.238492 3.091216 -12.052243 -1.101832 2.179129 3.464598 13.772287 3.928548 -6.529376 74.813723 1.243158 -0.442579 -0.202398 -3.577514 -3.027540 0.887410 1.218694 5.946556 -4.741421 -3.329620 -11.691287 -75.555729 -1.405744 3.526984 -3.050644 5.522937 -0.409480 -1.969023 0.742680 9.117708 -0.736513 -2.749956 -0.014735 -0.034303 -8.078826 -6.628230 1.487772 0.000000 0.000000 -0.000000 0.455230 8.772055 0.323024 -0.339503 2.573013 0.387392 0.012675 -7.458957 -0.470528 -0.000212 -0.071038 0.341469
16.931478 106.557031 162.876882 -82.620236 -3.836584 -0.450335 0.517198 3.250261 -0.468921 0.233056 1.444037 -0.211947 0.233056 1.444037 -0.211947 0.175283 1.082947 -0.159502 1.577987 13.048362 -0.281207 3.110662 -11.928731 -1.181721 2.118270 3.497929 13.594349 3.982026 -6.465050 74.878100 1.271901 -0.454177 -0.230961 -3.543031 -2.998848 0.848246 1.263664 5.958188 -4.903003 -3.347359 -11.591469 -75.613974 -1.479575 3.469211 -3.023869 5.443968 -0.411256 -1.880550 0.936226 9.055026 -0.729796 -3.013555 0.006896 -0.051143 -8.009214 -6.583163 1.445734 0.000000 0.000000 0.000000 0.444698 8.707187 0.292434 -0.378792 2.608489 0.376689 0.065190 -7.430039 -0.485744 -0.000102 -0.042322 0.237733
17.045792 106.564450 162.795435 -82.633326 -3.857344 -0.391001 0.566031 3.237867 -0.434974 0.254502 1.438521 -0.197193 0.254502 1.438521 -0.197193 0.191330 1.078809 -0.148486 1.582116 13.117050 -0.320578 3.132823 -11.799916 -1.256018 2.060799 3.531136 13.428107 4.055109 -6.421389 74.921762 1.306433 -0.465525 -0.265251 -3.498797 -2.964845 0.789884 1.310586 5.961664 -5.051796 -3.384776 -11.496745 -75.662598 -1.600554 3.418102 -3.033023 5.358959 -0.416876 -1.801146 1.144029 8.999037 -0.715090 -3.262512 0.025606 -0.062855 -7.961124 -6.537298 1.399845 -0.000000 -0.000000 -0.000000 0.431283 8.643695 0.269338 -0.411146 2.641488 0.367060 0.118932 -7.391823 -0.497326 -0.000028 -0.017216 0.099896
17.160521 106.573446 162.714299 -82.644675 -3.877614 -0.337998 0.612406 3.225891 -0.400487 0.274854 1.433200 -0.182180 0.274854 1.433200 -0.182180 0.206557 1.074818 -0.137272 1.585102 13.183981 -0.358262 3.152086 -11.674420 -1.326630 2.006795 3.566944 13.264264 4.143196 -6.391446 74.957443 1.352803 -0.499392 -0.299373 -3.455365 -2.944117 0.730627 1.349069 5.966798 -5.196174 -3.418772 -11.407015 -75.707387 -1.762482 3.372444 -3.065413 5.280835 -0.419670 -1.732246 1.321198 8.942665 -0.697963 -3.473658 0.042731 -0.077116 -7.920147 -6.490891 1.352755 0.000000 0.000000 0.000000 0.414582 8.581400 0.252055 -0.438752 2.668827 0.357127 0.170267 -7.346213 -0.507634 0.000000 -0.000000 0.000000
17.275116 106.583654 162.633237 -82.654651 -3.897240 -0.291614 0.655708 3.212594 -0.364852 0.293834 1.427303 -0.166631 0.293834 1.427303 -0.166631 0.220754 1.070398 -0.125653 1.586236 13.250742 -0.393923 3.166938 -11.549334 -1.392590 1.956964 3.606083 13.099177 4.247143 -6.373211 74.988842 1.409371 -0.561705 -0.334214 -3.416117 -2.945633 0.674698 1.374379 5.975432 -5.338859 -3.435583 -11.318697 -75.749466 -1.972082 3.340895 -3.119300 5.218280 -0.410270 -1.678329 1.447748 8.884074 -0.678107 -3.631278 0.058113 -0.099302 -7.882226 -6.442773 1.306830 0.000000 0.000000 0.000000 0.392518 8.521906 0.241365 -0.458178 2.687968 0.346481 0.218286 -7.293230 -0.516862 0.000006 0.005264 -0.025294
17.390126 106.595441 162.552484 -82.662879 -3.916383 -0.251563 0.696547 3.199694 -0.328680 0.311719 1.421592 -0.150825 0.311719 1.421592 -0.150825 0.234128 1.066118 -0.113838 1.586245 13.315713 -0.427930 3.178964 -11.427639 -1.454960 1.910562 3.647842 12.936505 4.366048 -6.368716 75.012162 1.477789 -0.646512 -0.369159 -3.377602 -2.960369 0.617827 1.391210 5.985514 -5.477151 -3.448972 -11.235426 -75.787737 -2.222473 3.314636 -3.196553 5.162802 -0.398060 -1.634852 1.543644 8.824971 -0.655776 -3.751071 0.071998 -0.123852 -7.851413 -6.394126 1.259693 0.000000 0.000000 0.000000 0.367116 8.463610 0.236484 -0.472836 2.701461 0.335577 0.263885 -7.232859 -0.524810 0.000003 0.002632 -0.012647
17.507232 106.607567 162.473467 -82.662586 -3.933421 -0.212994 0.732014 3.190898 -0.294087 0.327233 1.417712 -0.135688 0.327233 1.417712 -0.135688 0.245727 1.063212 -0.102520 1.583918 13.369460 -0.463065 3.187278 -11.326802 -1.518826 1.865432 3.692758 12.777912 4.492719 -6.377093 75.028853 1.569125 -0.758794 -0.396195 -3.339985 -2.979961 0.565614 1.403190 6.000993 -5.611265 -3.477145 -11.167891 -75.824643 -2.487176 3.266277 -3.289652 5.101406 -0.404516 -1.589635 1.623960 8.763641 -0.637427 -3.857005 0.086295 -0.142089 -7.825453 -6.348717 1.206896 0.000000 0.000000 0.000000 0.344146 8.401528 0.233367 -0.495181 2.713743 0.324298 0.306145 -7.166948 -0.533244 0.000000 0.000000 0.000000
